<mxfile host="app.diagrams.net" modified="2021-10-31T08:10:23.066Z" agent="5.0 (Windows NT 10.0; Win64; x64) AppleWebKit/537.36 (KHTML, like Gecko) Chrome/95.0.4638.54 Safari/537.36" etag="XgVYsZnO8Pf1aBuGpV7v" version="15.6.2" type="github">
  <diagram id="EV86mk1PAatEvUBDKGkD" name="Page-1">
    <mxGraphModel dx="1422" dy="727" grid="1" gridSize="10" guides="1" tooltips="1" connect="1" arrows="1" fold="1" page="1" pageScale="1" pageWidth="827" pageHeight="1169" math="0" shadow="0">
      <root>
        <mxCell id="0" />
        <mxCell id="1" parent="0" />
        <mxCell id="aWt0cM9ADZagKu85yA8u-1" value="Start" style="rounded=1;whiteSpace=wrap;html=1;" parent="1" vertex="1">
          <mxGeometry x="180" y="10" width="120" height="60" as="geometry" />
        </mxCell>
        <mxCell id="aWt0cM9ADZagKu85yA8u-3" value="Stop" style="rounded=1;whiteSpace=wrap;html=1;" parent="1" vertex="1">
          <mxGeometry x="40" y="640" width="120" height="60" as="geometry" />
        </mxCell>
        <mxCell id="aWt0cM9ADZagKu85yA8u-4" value="Read a&lt;br&gt;Read b&lt;br&gt;Read c&lt;br&gt;Read x" style="rounded=1;whiteSpace=wrap;html=1;" parent="1" vertex="1">
          <mxGeometry x="180" y="130" width="120" height="60" as="geometry" />
        </mxCell>
        <mxCell id="aWt0cM9ADZagKu85yA8u-5" value="sum = b2 - 4.a.c&lt;br&gt;Count = b..&lt;span style=&quot;color: rgb(38 , 38 , 38) ; font-family: &amp;#34;helvetica&amp;#34; , &amp;#34;arial&amp;#34; ; background-color: rgb(255 , 255 , 255)&quot;&gt;√b2-4.a.c / 2a&lt;br&gt;Count1= -&lt;/span&gt;b..&lt;span style=&quot;color: rgb(38 , 38 , 38) ; font-family: &amp;#34;helvetica&amp;#34; , &amp;#34;arial&amp;#34; ; background-color: rgb(255 , 255 , 255)&quot;&gt;√b2-4.a.c / 2a&lt;/span&gt;" style="rounded=1;whiteSpace=wrap;html=1;" parent="1" vertex="1">
          <mxGeometry x="180" y="230" width="120" height="80" as="geometry" />
        </mxCell>
        <mxCell id="aWt0cM9ADZagKu85yA8u-10" value="Yes&lt;span style=&quot;color: rgba(0 , 0 , 0 , 0) ; font-family: monospace ; font-size: 0px&quot;&gt;%3CmxGraphModel%3E%3Croot%3E%3CmxCell%20id%3D%220%22%2F%3E%3CmxCell%20id%3D%221%22%20parent%3D%220%22%2F%3E%3CmxCell%20id%3D%222%22%20value%3D%22%22%20style%3D%22endArrow%3Dclassic%3Bhtml%3D1%3Brounded%3D0%3B%22%20edge%3D%221%22%20parent%3D%221%22%3E%3CmxGeometry%20width%3D%2250%22%20height%3D%2250%22%20relative%3D%221%22%20as%3D%22geometry%22%3E%3CmxPoint%20x%3D%22240%22%20y%3D%22300%22%20as%3D%22sourcePoint%22%2F%3E%3CmxPoint%20x%3D%22200%22%20y%3D%22350%22%20as%3D%22targetPoint%22%2F%3E%3C%2FmxGeometry%3E%3C%2FmxCell%3E%3C%2Froot%3E%3C%2FmxGraphModel%3E&lt;/span&gt;" style="text;html=1;strokeColor=none;fillColor=none;align=center;verticalAlign=middle;whiteSpace=wrap;rounded=0;" parent="1" vertex="1">
          <mxGeometry x="120" y="400" width="60" height="30" as="geometry" />
        </mxCell>
        <mxCell id="aWt0cM9ADZagKu85yA8u-11" value="No&lt;br&gt;" style="text;html=1;strokeColor=none;fillColor=none;align=center;verticalAlign=middle;whiteSpace=wrap;rounded=0;" parent="1" vertex="1">
          <mxGeometry x="300" y="340" width="60" height="30" as="geometry" />
        </mxCell>
        <mxCell id="aWt0cM9ADZagKu85yA8u-14" value="" style="endArrow=classic;html=1;rounded=0;entryX=0.308;entryY=-0.012;entryDx=0;entryDy=0;entryPerimeter=0;exitX=0.344;exitY=1.004;exitDx=0;exitDy=0;exitPerimeter=0;" parent="1" source="q7bNpME4V6iKGXPXi4U3-3" target="aWt0cM9ADZagKu85yA8u-3" edge="1">
          <mxGeometry width="50" height="50" relative="1" as="geometry">
            <mxPoint x="120" y="550" as="sourcePoint" />
            <mxPoint x="220" y="540" as="targetPoint" />
          </mxGeometry>
        </mxCell>
        <mxCell id="aWt0cM9ADZagKu85yA8u-16" value="" style="endArrow=classic;html=1;rounded=0;" parent="1" edge="1">
          <mxGeometry width="50" height="50" relative="1" as="geometry">
            <mxPoint x="239.5" y="70" as="sourcePoint" />
            <mxPoint x="239.5" y="130" as="targetPoint" />
          </mxGeometry>
        </mxCell>
        <mxCell id="aWt0cM9ADZagKu85yA8u-17" value="" style="endArrow=classic;html=1;rounded=0;" parent="1" edge="1">
          <mxGeometry width="50" height="50" relative="1" as="geometry">
            <mxPoint x="239.5" y="190" as="sourcePoint" />
            <mxPoint x="240" y="230" as="targetPoint" />
            <Array as="points">
              <mxPoint x="240" y="220" />
            </Array>
          </mxGeometry>
        </mxCell>
        <mxCell id="q7bNpME4V6iKGXPXi4U3-1" value="If&amp;nbsp; sum &amp;lt; 0" style="rounded=1;whiteSpace=wrap;html=1;" parent="1" vertex="1">
          <mxGeometry x="180" y="340" width="120" height="60" as="geometry" />
        </mxCell>
        <mxCell id="q7bNpME4V6iKGXPXi4U3-2" value="" style="endArrow=classic;html=1;rounded=0;" parent="1" edge="1">
          <mxGeometry width="50" height="50" relative="1" as="geometry">
            <mxPoint x="190" y="400" as="sourcePoint" />
            <mxPoint x="160" y="450" as="targetPoint" />
          </mxGeometry>
        </mxCell>
        <mxCell id="q7bNpME4V6iKGXPXi4U3-3" value="Print&amp;nbsp; &quot;ERROR&quot;&amp;nbsp;&amp;nbsp;" style="shape=parallelogram;perimeter=parallelogramPerimeter;whiteSpace=wrap;html=1;fixedSize=1;" parent="1" vertex="1">
          <mxGeometry x="40" y="450" width="160" height="60" as="geometry" />
        </mxCell>
        <mxCell id="q7bNpME4V6iKGXPXi4U3-4" value="" style="endArrow=classic;html=1;rounded=0;" parent="1" edge="1">
          <mxGeometry width="50" height="50" relative="1" as="geometry">
            <mxPoint x="300" y="369.5" as="sourcePoint" />
            <mxPoint x="370" y="369.5" as="targetPoint" />
          </mxGeometry>
        </mxCell>
        <mxCell id="q7bNpME4V6iKGXPXi4U3-5" value="ıf a = 0&amp;nbsp;" style="rounded=1;whiteSpace=wrap;html=1;" parent="1" vertex="1">
          <mxGeometry x="370" y="340" width="120" height="60" as="geometry" />
        </mxCell>
        <mxCell id="q7bNpME4V6iKGXPXi4U3-6" value="" style="endArrow=classic;html=1;rounded=0;exitX=0.425;exitY=1.004;exitDx=0;exitDy=0;exitPerimeter=0;entryX=0.5;entryY=0;entryDx=0;entryDy=0;" parent="1" source="q7bNpME4V6iKGXPXi4U3-5" target="q7bNpME4V6iKGXPXi4U3-7" edge="1">
          <mxGeometry width="50" height="50" relative="1" as="geometry">
            <mxPoint x="400" y="445" as="sourcePoint" />
            <mxPoint x="390" y="530" as="targetPoint" />
          </mxGeometry>
        </mxCell>
        <mxCell id="q7bNpME4V6iKGXPXi4U3-7" value="Print &quot;İt is not a polynomial&quot;" style="rounded=1;whiteSpace=wrap;html=1;" parent="1" vertex="1">
          <mxGeometry x="370" y="450" width="120" height="60" as="geometry" />
        </mxCell>
        <mxCell id="q7bNpME4V6iKGXPXi4U3-8" value="Yes&lt;span style=&quot;color: rgba(0 , 0 , 0 , 0) ; font-family: monospace ; font-size: 0px&quot;&gt;%3CmxGraphModel%3E%3Croot%3E%3CmxCell%20id%3D%220%22%2F%3E%3CmxCell%20id%3D%221%22%20parent%3D%220%22%2F%3E%3CmxCell%20id%3D%222%22%20value%3D%22%22%20style%3D%22endArrow%3Dclassic%3Bhtml%3D1%3Brounded%3D0%3B%22%20edge%3D%221%22%20parent%3D%221%22%3E%3CmxGeometry%20width%3D%2250%22%20height%3D%2250%22%20relative%3D%221%22%20as%3D%22geometry%22%3E%3CmxPoint%20x%3D%22240%22%20y%3D%22300%22%20as%3D%22sourcePoint%22%2F%3E%3CmxPoint%20x%3D%22200%22%20y%3D%22350%22%20as%3D%22targetPoint%22%2F%3E%3C%2FmxGeometry%3E%3C%2FmxCell%3E%3C%2Froot%3E%3C%2FmxGraphModel%3E&lt;/span&gt;" style="text;html=1;strokeColor=none;fillColor=none;align=center;verticalAlign=middle;whiteSpace=wrap;rounded=0;" parent="1" vertex="1">
          <mxGeometry x="370" y="405" width="60" height="30" as="geometry" />
        </mxCell>
        <mxCell id="q7bNpME4V6iKGXPXi4U3-9" value="No&lt;br&gt;" style="text;html=1;strokeColor=none;fillColor=none;align=center;verticalAlign=middle;whiteSpace=wrap;rounded=0;" parent="1" vertex="1">
          <mxGeometry x="490" y="370" width="60" height="30" as="geometry" />
        </mxCell>
        <mxCell id="q7bNpME4V6iKGXPXi4U3-10" value="" style="endArrow=classic;html=1;rounded=0;entryX=0;entryY=0.25;entryDx=0;entryDy=0;" parent="1" target="q7bNpME4V6iKGXPXi4U3-11" edge="1">
          <mxGeometry width="50" height="50" relative="1" as="geometry">
            <mxPoint x="490" y="390" as="sourcePoint" />
            <mxPoint x="540" y="420" as="targetPoint" />
          </mxGeometry>
        </mxCell>
        <mxCell id="q7bNpME4V6iKGXPXi4U3-11" value="İf&amp;nbsp; b=0" style="rounded=1;whiteSpace=wrap;html=1;" parent="1" vertex="1">
          <mxGeometry x="550" y="390" width="120" height="60" as="geometry" />
        </mxCell>
        <mxCell id="q7bNpME4V6iKGXPXi4U3-12" value="" style="endArrow=classic;html=1;rounded=0;entryX=1;entryY=0.25;entryDx=0;entryDy=0;exitX=0;exitY=1;exitDx=0;exitDy=0;" parent="1" source="q7bNpME4V6iKGXPXi4U3-11" target="q7bNpME4V6iKGXPXi4U3-7" edge="1">
          <mxGeometry width="50" height="50" relative="1" as="geometry">
            <mxPoint x="609.5" y="395" as="sourcePoint" />
            <mxPoint x="609.5" y="345" as="targetPoint" />
          </mxGeometry>
        </mxCell>
        <mxCell id="q7bNpME4V6iKGXPXi4U3-13" value="Yes&lt;span style=&quot;color: rgba(0 , 0 , 0 , 0) ; font-family: monospace ; font-size: 0px&quot;&gt;%3CmxGraphModel%3E%3Croot%3E%3CmxCell%20id%3D%220%22%2F%3E%3CmxCell%20id%3D%221%22%20parent%3D%220%22%2F%3E%3CmxCell%20id%3D%222%22%20value%3D%22%22%20style%3D%22endArrow%3Dclassic%3Bhtml%3D1%3Brounded%3D0%3B%22%20edge%3D%221%22%20parent%3D%221%22%3E%3CmxGeometry%20width%3D%2250%22%20height%3D%2250%22%20relative%3D%221%22%20as%3D%22geometry%22%3E%3CmxPoint%20x%3D%22240%22%20y%3D%22300%22%20as%3D%22sourcePoint%22%2F%3E%3CmxPoint%20x%3D%22200%22%20y%3D%22350%22%20as%3D%22targetPoint%22%2F%3E%3C%2FmxGeometry%3E%3C%2FmxCell%3E%3C%2Froot%3E%3C%2FmxGraphModel%3E&lt;/span&gt;" style="text;html=1;strokeColor=none;fillColor=none;align=center;verticalAlign=middle;whiteSpace=wrap;rounded=0;" parent="1" vertex="1">
          <mxGeometry x="500" y="460" width="60" height="30" as="geometry" />
        </mxCell>
        <mxCell id="q7bNpME4V6iKGXPXi4U3-14" value="No&lt;br&gt;" style="text;html=1;strokeColor=none;fillColor=none;align=center;verticalAlign=middle;whiteSpace=wrap;rounded=0;" parent="1" vertex="1">
          <mxGeometry x="600" y="460" width="60" height="30" as="geometry" />
        </mxCell>
        <mxCell id="q7bNpME4V6iKGXPXi4U3-15" value="" style="endArrow=classic;html=1;rounded=0;entryX=0.5;entryY=0;entryDx=0;entryDy=0;exitX=0.592;exitY=1.054;exitDx=0;exitDy=0;exitPerimeter=0;" parent="1" source="q7bNpME4V6iKGXPXi4U3-11" target="q7bNpME4V6iKGXPXi4U3-16" edge="1">
          <mxGeometry width="50" height="50" relative="1" as="geometry">
            <mxPoint x="609.5" y="455" as="sourcePoint" />
            <mxPoint x="610" y="495" as="targetPoint" />
          </mxGeometry>
        </mxCell>
        <mxCell id="q7bNpME4V6iKGXPXi4U3-16" value="İf sum &amp;gt; 0" style="rounded=1;whiteSpace=wrap;html=1;" parent="1" vertex="1">
          <mxGeometry x="550" y="500" width="120" height="60" as="geometry" />
        </mxCell>
        <mxCell id="q7bNpME4V6iKGXPXi4U3-19" value="" style="endArrow=classic;html=1;rounded=0;fontSize=12;fontColor=#FFFFFF;exitX=0.867;exitY=1.038;exitDx=0;exitDy=0;exitPerimeter=0;entryX=0.192;entryY=0.004;entryDx=0;entryDy=0;entryPerimeter=0;" parent="1" source="q7bNpME4V6iKGXPXi4U3-16" target="2k4fCdNs23OmW_KcKxx6-2" edge="1">
          <mxGeometry width="50" height="50" relative="1" as="geometry">
            <mxPoint x="710" y="660" as="sourcePoint" />
            <mxPoint x="680" y="600" as="targetPoint" />
          </mxGeometry>
        </mxCell>
        <mxCell id="q7bNpME4V6iKGXPXi4U3-22" value="&lt;font color=&quot;#000000&quot;&gt;&lt;span style=&quot;background-color: rgb(248 , 249 , 250)&quot;&gt;Print Count&lt;/span&gt;&lt;/font&gt;" style="rounded=1;whiteSpace=wrap;html=1;labelBackgroundColor=#000000;fontSize=12;fontColor=#FFFFFF;" parent="1" vertex="1">
          <mxGeometry x="470" y="610" width="120" height="60" as="geometry" />
        </mxCell>
        <mxCell id="q7bNpME4V6iKGXPXi4U3-24" value="Yes&lt;span style=&quot;color: rgba(0 , 0 , 0 , 0) ; font-family: monospace ; font-size: 0px&quot;&gt;%3CmxGraphModel%3E%3Croot%3E%3CmxCell%20id%3D%220%22%2F%3E%3CmxCell%20id%3D%221%22%20parent%3D%220%22%2F%3E%3CmxCell%20id%3D%222%22%20value%3D%22%22%20style%3D%22endArrow%3Dclassic%3Bhtml%3D1%3Brounded%3D0%3B%22%20edge%3D%221%22%20parent%3D%221%22%3E%3CmxGeometry%20width%3D%2250%22%20height%3D%2250%22%20relative%3D%221%22%20as%3D%22geometry%22%3E%3CmxPoint%20x%3D%22240%22%20y%3D%22300%22%20as%3D%22sourcePoint%22%2F%3E%3CmxPoint%20x%3D%22200%22%20y%3D%22350%22%20as%3D%22targetPoint%22%2F%3E%3C%2FmxGeometry%3E%3C%2FmxCell%3E%3C%2Froot%3E%3C%2FmxGraphModel%3E&lt;/span&gt;" style="text;html=1;strokeColor=none;fillColor=none;align=center;verticalAlign=middle;whiteSpace=wrap;rounded=0;" parent="1" vertex="1">
          <mxGeometry x="660" y="570" width="60" height="30" as="geometry" />
        </mxCell>
        <mxCell id="q7bNpME4V6iKGXPXi4U3-27" value="" style="endArrow=classic;html=1;rounded=0;exitX=0.2;exitY=1.038;exitDx=0;exitDy=0;exitPerimeter=0;entryX=0.592;entryY=-0.062;entryDx=0;entryDy=0;entryPerimeter=0;" parent="1" source="q7bNpME4V6iKGXPXi4U3-16" target="q7bNpME4V6iKGXPXi4U3-22" edge="1">
          <mxGeometry width="50" height="50" relative="1" as="geometry">
            <mxPoint x="560" y="560" as="sourcePoint" />
            <mxPoint x="560.5" y="600" as="targetPoint" />
          </mxGeometry>
        </mxCell>
        <mxCell id="q7bNpME4V6iKGXPXi4U3-30" value="No&lt;br&gt;" style="text;html=1;strokeColor=none;fillColor=none;align=center;verticalAlign=middle;whiteSpace=wrap;rounded=0;" parent="1" vertex="1">
          <mxGeometry x="510" y="560" width="60" height="30" as="geometry" />
        </mxCell>
        <mxCell id="q7bNpME4V6iKGXPXi4U3-31" value="" style="endArrow=classic;html=1;rounded=0;fontSize=12;fontColor=#FFFFFF;entryX=1;entryY=0;entryDx=0;entryDy=0;exitX=0;exitY=1;exitDx=0;exitDy=0;" parent="1" source="q7bNpME4V6iKGXPXi4U3-7" target="aWt0cM9ADZagKu85yA8u-3" edge="1">
          <mxGeometry width="50" height="50" relative="1" as="geometry">
            <mxPoint x="390" y="570" as="sourcePoint" />
            <mxPoint x="440" y="520" as="targetPoint" />
          </mxGeometry>
        </mxCell>
        <mxCell id="q7bNpME4V6iKGXPXi4U3-32" value="" style="endArrow=classic;html=1;rounded=0;fontSize=12;fontColor=#FFFFFF;entryX=1;entryY=0.5;entryDx=0;entryDy=0;exitX=0;exitY=0.5;exitDx=0;exitDy=0;" parent="1" source="q7bNpME4V6iKGXPXi4U3-22" target="aWt0cM9ADZagKu85yA8u-3" edge="1">
          <mxGeometry width="50" height="50" relative="1" as="geometry">
            <mxPoint x="390" y="570" as="sourcePoint" />
            <mxPoint x="440" y="520" as="targetPoint" />
          </mxGeometry>
        </mxCell>
        <mxCell id="q7bNpME4V6iKGXPXi4U3-33" value="" style="endArrow=classic;html=1;rounded=0;fontSize=12;fontColor=#FFFFFF;entryX=0.5;entryY=0;entryDx=0;entryDy=0;exitX=0.5;exitY=1;exitDx=0;exitDy=0;" parent="1" source="aWt0cM9ADZagKu85yA8u-5" target="q7bNpME4V6iKGXPXi4U3-1" edge="1">
          <mxGeometry width="50" height="50" relative="1" as="geometry">
            <mxPoint x="80" y="350" as="sourcePoint" />
            <mxPoint x="130" y="300" as="targetPoint" />
          </mxGeometry>
        </mxCell>
        <mxCell id="q7bNpME4V6iKGXPXi4U3-35" value="" style="endArrow=classic;html=1;rounded=0;fontSize=12;fontColor=#FFFFFF;entryX=1;entryY=1;entryDx=0;entryDy=0;exitX=0.142;exitY=1.038;exitDx=0;exitDy=0;exitPerimeter=0;" parent="1" source="2k4fCdNs23OmW_KcKxx6-2" target="aWt0cM9ADZagKu85yA8u-3" edge="1">
          <mxGeometry width="50" height="50" relative="1" as="geometry">
            <mxPoint x="670" y="680" as="sourcePoint" />
            <mxPoint x="440" y="520" as="targetPoint" />
            <Array as="points">
              <mxPoint x="500" y="730" />
              <mxPoint x="310" y="730" />
            </Array>
          </mxGeometry>
        </mxCell>
        <mxCell id="2k4fCdNs23OmW_KcKxx6-2" value="Print Count + &quot;and&quot; + Count1" style="rounded=1;whiteSpace=wrap;html=1;" vertex="1" parent="1">
          <mxGeometry x="660" y="610" width="120" height="60" as="geometry" />
        </mxCell>
      </root>
    </mxGraphModel>
  </diagram>
</mxfile>
